<?xml version="1.0" encoding="UTF-8"?>
<svg width="1052.3622" height="744.09448" xmlns="http://www.w3.org/2000/svg" xmlns:svg="http://www.w3.org/2000/svg" xmlns:xlink="http://www.w3.org/1999/xlink">
 <title>white plane</title>
 <defs>
  <linearGradient id="linearGradient2159">
   <stop stop-color="#2c0000" offset="0" id="stop2161"/>
   <stop stop-color="#89777f" offset="1" id="stop2167"/>
   <stop stop-color="#e7eeff" stop-opacity="0" offset="1" id="stop2163"/>
  </linearGradient>
  <linearGradient y2="Infinity" y1="-Infinity" xlink:href="#linearGradient2159" x2="0.165947" x1="0.756957" id="linearGradient2285"/>
  <linearGradient y2="Infinity" y1="-Infinity" xlink:href="#linearGradient2159" x2="0.077192" x1="0.876851" id="linearGradient2287"/>
 </defs>
 <g>
  <title>Layer 1</title>
  <g id="layer1">
   <g transform="matrix(1.150893,0,0,1.150893,-79.39613,-32.38948) " id="g2255">
    <path fill="#ff7f00" fill-rule="evenodd" stroke="#000000" stroke-width="1.9" stroke-miterlimit="4" id="path1372" d="m486.876869,235.123899l35.74577,-2.89831c0,0 7.72881,-0.9661 13.52542,2.89831c5.79661,3.8644 10.62712,6.76271 11.59322,11.59322c0.9661,4.83051 3.86441,13.52542 1.9322,18.35593c-1.9322,4.83051 -1.9322,10.62712 -6.76271,12.55932c-4.83051,1.93221 -8.69491,3.86441 -13.52542,4.83051c-4.83051,0.9661 -88.88136,-3.86441 -88.88136,-3.86441c0,0 3.86441,-4.8305 6.76271,-6.76271c2.89831,-1.9322 2.89831,-2.8983 2.89831,-2.8983c0,0 -0.9661,3.8644 -1.93221,-3.86441c-0.9661,-7.72881 0,-9.66102 4.83051,-15.45763c4.83051,-5.79661 5.79661,-9.66101 15.45763,-11.59322c9.66102,-1.9322 18.35593,-2.8983 18.35593,-2.8983z"/>
    <path fill="#ff7f00" fill-rule="evenodd" stroke="#000000" stroke-width="2" stroke-miterlimit="4" id="path1362" d="m267.131109,173.225589l114,-68l30,-16l22,-4l-146,100l-20,-12z"/>
    <path fill="#ff7f00" fill-rule="evenodd" stroke-miterlimit="4" id="path2209" d="m273.821299,172.216069l101.657,-60.56162l-99.49409,73.53911l-2.16291,-12.97749z"/>
    <path fill="#ff7f00" fill-rule="evenodd" stroke="#000000" stroke-width="2" stroke-miterlimit="4" id="path1360" d="m635.131109,289.225589l272,-188c0,0 14,-8 24,-6c10,2 10,2 10,2l-238,198l-68,-6z"/>
    <path fill="#ff7f00" fill-rule="evenodd" stroke-miterlimit="4" id="path2205" d="m691.263859,293.339299l227.10606,-183.84776l-250.89812,190.33651l23.79206,-6.48875z"/>
    <path fill="#ff7f00" fill-rule="evenodd" stroke="#000000" stroke-width="2" stroke-miterlimit="4" id="path1358" d="m385.131109,275.225589c0,0 40,-2 84,0c44,2 222,14 236,16c10.72202,-0.04874 26.31228,5.18051 41.95126,10.77076c14,6 38.04874,23.22924 40.04874,23.22924c2,0 30.31228,8.36101 37.59025,12.36101c15.06317,7.27798 51.59026,32.45848 63.63899,57.63899c7.54152,13.29784 8.77076,22 4.77076,32c-4,10 -20,22 -30,24c-10,2 -58,2 -80,0c-22,-2 -186,-34 -186,-34l-68,12l-386.33898,178.20339c-11.33899,-0.67797 -19.38983,-3.79661 -27.0339,-6.20339c-6,-10 1.37288,-10 1.37288,-10l330,-178c0,0 -21.10169,-12.9661 -27.10169,-22.9661c-6,-10 -14.89831,-17.0339 -14.89831,-17.0339l-12,-8l-45.26963,-25.17721l-28.73037,-46.82279l1.03544,-9.10633l-83.03544,-110.89367c0,0 22,-6 30,-4c8,2 118,106 118,106z"/>
    <path fill="#ff7f00" fill-rule="nonzero" stroke-width="5.8" stroke-linecap="round" stroke-miterlimit="4" stroke-dashoffset="0" stroke-opacity="0.167568" id="path2253" d="m445.481941,341.038408a42.486018,16.145244 0 1 1 -84.972024,-6.718824a42.486018,16.145244 0 1 1 84.972024,6.718824z"/>
    <path transform="translate(-198,129) " fill="#ffffff" fill-rule="evenodd" stroke="#000058" stroke-width="5.8" stroke-linecap="round" stroke-miterlimit="4" stroke-opacity="0.167568" id="path2251" d="m581.433269,556.063829l281.17894,62.72453c0,0 12.97748,2.16292 36.76955,6.48875"/>
    <path fill="#ff7f00" fill-rule="evenodd" stroke-miterlimit="4" id="path1374" d="m392.131109,351.395079l15.45763,-6.31029c0,0 13.52542,-4.20686 5.79661,-12.62059c-7.72882,-8.41374 -25.11865,2.10343 -25.11865,2.10343l3.86441,16.82745z"/>
    <path fill="#ff7f00" fill-rule="evenodd" stroke="#000000" stroke-width="1.3" stroke-miterlimit="4" id="path1364" d="m243.131109,185.225589l-134,74c0,0 6,2 14,2c8,-2 156,-70 152,-72c-4,-2 -10,-4 -10,-4l-22,0z"/>
    <path fill="#ff7f00" fill-rule="evenodd" stroke="#000000" stroke-width="1.8" stroke-miterlimit="4" id="path1370" d="m332.436189,315.242539l40.57628,-0.9661c0,0 5.79661,0 11.59322,2.8983c5.79661,2.89831 14.49152,12.55933 15.45762,16.42373c0.96611,3.86441 3.86441,18.35594 -1.9322,25.11865c-5.79661,6.76271 -11.59322,12.55932 -17.38983,14.49152c-5.79661,1.93221 -23.18644,1.93221 -23.18644,1.93221c0,0 -16.42373,-4.83051 -25.11865,-9.66102c-8.69491,-4.83051 -17.38983,-15.45763 -18.35593,-21.25424c-0.9661,-5.79661 -0.9661,-13.52542 2.89831,-17.38983c3.8644,-3.8644 15.45762,-11.59322 15.45762,-11.59322z"/>
    <path fill="#00ffff" fill-rule="evenodd" stroke="#000000" stroke-width="1.8" stroke-miterlimit="4" id="path1376" d="m716.943609,293.974859c0,0 1.93222,0.98465 0,6.78125c-4.39068,5.79661 -9.65624,7.71875 -9.65625,7.71875l40.9375,34.59375l32.28125,-19.875c0,0 -23.95872,-14.72934 -31.6875,-18.59375c-7.72882,-3.8644 -31.87498,-10.62499 -31.875,-10.625zm-17.375,18.375c0,0 -9.68803,6.7606 -21.28125,10.625c-11.59322,3.8644 -15.43749,1.93749 -15.4375,1.9375c0,0 -5.80722,13.51906 -3.875,31.875c1.9322,18.35594 4.83367,29.94546 12.5625,32.84375c7.72881,2.89831 7.71872,-0.96875 7.71875,-0.96875l62.8125,-40.5625l-42.5,-35.75z"/>
    <path fill="#00ffff" fill-rule="evenodd" stroke="#000000" stroke-width="1.8" stroke-miterlimit="4" id="path1380" d="m468.381109,324.849859c0,0 -1.5454,2.36738 -2.6875,6.59375c-1.14211,4.22637 -1.12499,8.43751 -1.125,8.4375c0,0 -0.0114,2.83783 0.75,6.125c0.76141,3.28718 2.28125,7.50001 2.28125,7.5c0,0 5.71302,1.40793 6.09375,0.46875c0.38068,-0.93918 -0.00001,-7.05149 0,-13.15625c0,-6.10475 -0.00001,-15.50001 0,-15.5l-5.3125,-0.46875zm18.34375,1.59375c0,0 -1.61196,2.41026 -2.8125,6.78125c-1.20056,4.37098 -1.21876,8.74999 -1.21875,8.75c0,0 0.01214,2.91285 0.8125,6.3125c0.80037,3.39966 2.40624,7.78126 2.40625,7.78125c0,0 6.00606,1.44009 6.40625,0.46875c0.40017,-0.97132 0.00001,-7.28009 0,-13.59375c0,-6.31363 0.00001,-16.03124 0,-16.03125l-5.59375,-0.46875zm19.875,3.625c0,0 -1.67839,2.41026 -2.9375,6.78125c-1.25912,4.37098 -1.24999,8.74999 -1.25,8.75c0,0 0.00434,2.91285 0.84375,6.3125c0.83941,3.39966 2.50001,7.78126 2.5,7.78125c0,0 6.29904,1.44009 6.71875,0.46875c0.41969,-0.97132 0.00001,-7.2801 0,-13.59375c0,-6.31363 0.00001,-16.03124 0,-16.03125l-5.875,-0.46875zm133.40625,2.9375c-1.44915,-0.12076 -3.3803,0.11334 -5.3125,1.5625c-3.8644,2.8983 -3.87765,10.61493 -4.84375,18.34375c-0.9661,7.72881 -0.87236,17.26589 0.09375,23.0625c-0.58706,2.69028 3.78127,4.96876 3.78125,4.96875c0,0 15.63947,4.28964 19.78125,2.21875c-0.51772,-3.62405 -3.34639,-12.33103 -4.3125,-19.09375c-0.9661,-6.76272 -1.93751,-18.875 -1.9375,-18.875c0,0 2.42953,-5.857 -0.46875,-10.6875c-0.82742,-0.17102 -4.37501,-0.90624 -4.375,-0.90625c0,0 -0.9571,-0.47299 -2.40625,-0.59375zm-114.03125,0.15625c0,0 -1.77599,2.41027 -3.09375,6.78125c-1.31778,4.37098 -1.31249,8.74999 -1.3125,8.75c0,0 -0.00353,2.91285 0.875,6.3125c0.87852,3.39966 2.65624,7.78126 2.65625,7.78125c0,0 6.592,1.44007 7.03125,0.46875c0.43925,-0.97132 0.00002,-7.28009 0,-13.59375c0,-6.31363 0.00002,-16.03126 0,-16.03125l-6.15625,-0.46875zm20.40625,2.59375c0,0 -1.84222,2.46307 -3.21875,6.90625c-1.3765,4.44317 -1.37502,8.90625 -1.375,8.90625c0,0 -0.01143,2.95046 0.90625,6.40625c0.91767,3.4558 2.75001,7.90624 2.75,7.90625c0,0 6.88492,1.45613 7.34375,0.46875c0.45883,-0.98736 0.00001,-7.39457 0,-13.8125c0,-6.4179 0.00001,-16.28126 0,-16.28125l-6.40625,-0.5zm21.875,2.625c0,0 -2.07181,2.59052 -3.625,7.25c-1.55316,4.65949 -1.56247,9.31249 -1.5625,9.3125c0,0 -0.00418,3.09472 1.03125,6.71875c1.03544,3.62405 3.125,8.28126 3.125,8.28125c0,0 7.7635,1.56669 8.28125,0.53125c0.51772,-1.03544 -0.00003,-7.76962 0,-14.5c0,-6.73037 -0.00003,-17.09376 0,-17.09375l-7.25,-0.5zm24.84375,3.09375c0,0 -2.07185,2.5905 -3.625,7.25c-1.55316,4.65949 -1.56251,9.3125 -1.5625,9.3125c0,0 -0.00416,3.0947 1.03125,6.71875c1.03544,3.62405 3.12503,8.31249 3.125,8.3125c0,0 7.76353,1.53545 8.28125,0.5c0.51772,-1.03544 0,-7.76961 0,-14.5c0,-6.73037 0,-17.06251 0,-17.0625l-7.25,-0.53125z"/>
    <path fill="url(#linearGradient2285)" fill-rule="nonzero" stroke="#000000" stroke-miterlimit="4" stroke-dashoffset="0" id="path1396" d="m398.294069,344.321509a17.34366,18.3791 0 1 1 -34.68731,0a17.34366,18.3791 0 1 1 34.68731,0z"/>
    <path fill="url(#linearGradient2287)" fill-rule="nonzero" stroke="#000000" stroke-width="1.033229" stroke-miterlimit="4" stroke-dashoffset="0" id="path2157" d="m544.908066,256.496888a15.276112,18.63796 0 1 1 -30.552234,0a15.276112,18.63796 0 1 1 30.552234,0z"/>
    <path fill="#ff7f00" fill-rule="evenodd" stroke-miterlimit="4" id="path2177" d="m873.131109,427.225589c0,0 -4,6 -38,6c-34,0 -62,-6 -90,-12c-28,-6 -66,-26 -66,-26c0,0 -28,-4 -36,0c-8,4 0,10 20,12c20,2 84,22 112,26c28,4 54,6 70,4c16,-2 28,-10 28,-10z"/>
    <path fill="#ff7f00" fill-rule="evenodd" stroke-miterlimit="4" id="path2179" d="m323.131109,284.225589l50,-6c0,0 0,-2 -1.66667,14c-1.66666,16 -6.66666,-4 -15,-6c-8.33333,-2 -33.33333,-2 -33.33333,-2z"/>
    <path fill="#ff7f00" fill-rule="evenodd" stroke-miterlimit="4" id="path2181" d="m327.617599,281.225589l53.51351,-2l-90,-80c0,0 55.94595,52 58.37838,64c2.43243,12 -21.89189,18 -21.89189,18z"/>
    <path fill="#ff7f00" fill-rule="evenodd" stroke-miterlimit="4" id="path2183" d="m381.131109,281.225589c0,0 58,-2 150,4c92,6 137.82353,7.23529 137.82353,7.23529c28.29412,1.52942 49.99999,1.52941 22.29412,14.58824c-20.05883,13.82353 -27.52941,10.76471 -35.52941,16.76471c-8,6 -18.58824,9.41176 -28.58824,9.41176c-10,0 -46.97749,-2.8596 -72.97749,-6.8596c-26,-4 -125.02251,-16.16291 -141.02251,-16.16291c-16,0 -34.97749,-7.1404 -42.97749,-15.1404c-8,-8 10.97749,-13.83709 10.97749,-13.83709z"/>
    <path fill="#ff7f00" fill-rule="evenodd" stroke-miterlimit="4" id="path2201" d="m420.899509,371.204239l157.89278,36.76955c0,0 -101.657,-19.46623 -116.7974,-12.97749c-15.1404,6.48874 -17.30332,8.65166 -28.11789,-2.16291c-10.81458,-10.81458 -12.97749,-21.62915 -12.97749,-21.62915z"/>
    <path fill="#ff7f00" fill-rule="evenodd" stroke-miterlimit="4" id="path2203" d="m139.720579,600.473209l406.62799,-188.17359l-47.58413,8.65166l-359.04386,179.52193z"/>
    <path fill="#000000" fill-opacity="0.064865" fill-rule="evenodd" stroke-miterlimit="4" id="path2207" d="m237.595939,185.193559l42.7141,0c0,0 -21.35705,0 -90.76746,32.03817c-69.41041,32.03819 48.05336,-32.03817 48.05336,-32.03817z"/>
    <path fill="#ff7f00" fill-rule="evenodd" stroke-miterlimit="4" id="path2211" d="m447.180319,271.547239c0,0 45.42121,2.16291 49.74704,-6.48875c4.32583,-8.65166 0,-10.81457 6.48874,-19.46623c6.48875,-8.65166 12.97749,-12.97749 12.97749,-12.97749c0,0 -8.65166,10.81458 -8.65166,19.46623c0,8.65166 2.16292,21.62915 2.16292,21.62915l-62.72453,-2.16291z"/>
    <path fill="#ff7f00" fill-rule="evenodd" stroke-miterlimit="4" id="path2213" d="m364.663719,319.294279c0,0 -8.65166,2.16292 -8.65166,17.30332c0,15.1404 -2.16291,19.46623 2.16292,23.79206c4.32583,4.32583 17.30332,6.48875 17.30332,6.48875c0,0 -4.32583,6.48874 -19.46624,2.16291c-15.1404,-4.32583 -30.28081,-10.81457 -30.28081,-10.81457c0,0 23.79207,10.81457 23.79207,4.32583c0,-6.48875 -2.16292,-15.14041 0,-25.95498c2.16291,-10.81458 15.1404,-17.30332 15.1404,-17.30332z"/>
   </g>
  </g>
 </g>
</svg>